<?xml version="1.0" standalone="no"?><!DOCTYPE svg PUBLIC "-//W3C//DTD SVG 1.1//EN" "http://www.w3.org/Graphics/SVG/1.1/DTD/svg11.dtd"><svg t="1650263857663" class="icon" viewBox="0 0 1024 1024" version="1.1" xmlns="http://www.w3.org/2000/svg" p-id="8539" width="40" height="40" xmlns:xlink="http://www.w3.org/1999/xlink"><defs><style type="text/css">@font-face { font-family: feedback-iconfont; src: url("//at.alicdn.com/t/font_1031158_u69w8yhxdu.woff2?t=1630033759944") format("woff2"), url("//at.alicdn.com/t/font_1031158_u69w8yhxdu.woff?t=1630033759944") format("woff"), url("//at.alicdn.com/t/font_1031158_u69w8yhxdu.ttf?t=1630033759944") format("truetype"); }
</style></defs><path d="M744.448 220.16H68.096C30.72 220.16 0 250.88 0 288.256V829.44c0 37.376 30.72 68.096 68.096 68.096h647.168v-33.792H68.096c-18.432 0-33.792-14.848-33.792-33.792V288.256s14.848-33.792 33.792-33.792h677.376c18.432 0 33.792 14.848 33.792 33.792V829.44c0 18.432-14.848 33.792-33.792 33.792h-34.304v33.792h33.792c37.376 0 68.096-30.72 68.096-68.096V288.256c-0.512-37.376-31.232-68.096-68.608-68.096z" fill="#ffcb66" p-id="8540"></path><path d="M34.304 329.728h744.448v30.208H34.304zM187.392 417.28H63.488c-6.656 0-12.288-5.632-12.288-12.288v-6.144c0-6.656 5.632-12.288 12.288-12.288h123.904c6.656 0 12.288 5.632 12.288 12.288v6.144c0 6.656-5.632 12.288-12.288 12.288zM376.832 417.28H252.928c-6.656 0-12.288-5.632-12.288-12.288v-6.144c0-6.656 5.632-12.288 12.288-12.288h123.904c6.656 0 12.288 5.632 12.288 12.288v6.144c0 6.656-5.632 12.288-12.288 12.288zM571.392 417.28H447.488c-6.656 0-12.288-5.632-12.288-12.288v-6.144c0-6.656 5.632-12.288 12.288-12.288h123.904c6.656 0 12.288 5.632 12.288 12.288v6.144c0 6.656-5.632 12.288-12.288 12.288zM750.592 417.28h-123.904c-6.656 0-12.288-5.632-12.288-12.288v-6.144c0-6.656 5.632-12.288 12.288-12.288h123.904c6.656 0 12.288 5.632 12.288 12.288v6.144c0 6.656-5.632 12.288-12.288 12.288zM186.88 489.984H62.976c-6.656 0-12.288-5.632-12.288-12.288v-6.144c0-6.656 5.632-12.288 12.288-12.288h123.904c6.656 0 12.288 5.632 12.288 12.288v6.144c0 6.656-5.632 12.288-12.288 12.288zM376.32 489.984H252.416c-6.656 0-12.288-5.632-12.288-12.288v-6.144c0-6.656 5.632-12.288 12.288-12.288h123.904c6.656 0 12.288 5.632 12.288 12.288v6.144c0 6.656-5.632 12.288-12.288 12.288zM570.88 489.984H446.976c-6.656 0-12.288-5.632-12.288-12.288v-6.144c0-6.656 5.632-12.288 12.288-12.288h123.904c6.656 0 12.288 5.632 12.288 12.288v6.144c0 6.656-5.632 12.288-12.288 12.288zM961.536 439.808h-123.904c-6.656 0-12.288-5.632-12.288-12.288v-6.144c0-6.656 5.632-12.288 12.288-12.288h123.904c6.656 0 12.288 5.632 12.288 12.288v6.144c0 6.656-5.632 12.288-12.288 12.288zM962.048 308.736h-123.904c-6.656 0-12.288-5.632-12.288-12.288v-6.144c0-6.656 5.632-12.288 12.288-12.288h123.904c6.656 0 12.288 5.632 12.288 12.288v6.144c0 7.168-5.12 12.288-12.288 12.288z" fill="#ffcb66" p-id="8541"></path><path d="M245.76 199.68v-30.72s14.848-33.792 33.792-33.792h677.376c18.432 0 33.792 14.848 33.792 33.792v541.696c0 18.432-14.848 33.792-33.792 33.792h-121.344v33.792h120.832c37.376 0 68.096-30.72 68.096-68.096V169.472c0-37.376-30.72-68.096-68.096-68.096H279.552c-37.376 0-68.096 30.72-68.096 68.096v31.232" fill="#ffcb66" p-id="8542"></path><path d="M961.536 375.296h-123.904c-6.656 0-12.288-5.632-12.288-12.288v-6.144c0-6.656 5.632-12.288 12.288-12.288h123.904c6.656 0 12.288 5.632 12.288 12.288v6.144c0 6.656-5.632 12.288-12.288 12.288zM767.488 224.768h222.208v30.208h-222.208zM922.112 412.16c-1.024 0-2.048 0-3.072 0.512v-0.512c0-5.632-4.608-10.24-10.24-10.24-1.536 0-2.56 0.512-3.584 0.512-1.024-4.096-5.12-7.168-9.728-7.168-4.608 0-8.192 3.072-9.728 7.168-1.024-0.512-2.56-0.512-3.584-0.512-5.632 0-10.24 4.608-10.24 10.24v29.184l-3.072-3.072c-3.584-4.096-10.24-4.096-13.824 0-2.048 2.048-3.072 4.608-3.072 7.168 0 2.56 1.024 5.12 2.56 7.168l17.92 22.528 1.536 1.536c1.536 2.048 3.584 3.584 5.632 5.12 3.072 1.536 6.144 2.56 9.728 2.56h16.384c6.656 0 12.8-3.072 17.92-7.68 2.048-2.56 4.096-5.12 5.12-8.192 1.536-3.072 2.048-6.656 2.048-10.24v-35.84c1.536-5.632-3.072-10.24-8.704-10.24z" fill="#ffcb66" p-id="8543"></path><path d="M922.112 412.16c-1.024 0-2.048 0-3.072 0.512v-0.512c0-5.632-4.608-10.24-10.24-10.24-1.536 0-2.56 0.512-3.584 0.512-1.024-4.096-5.12-7.168-9.728-7.168-4.608 0-8.192 3.072-9.728 7.168-1.024-0.512-2.56-0.512-3.584-0.512-5.632 0-10.24 4.608-10.24 10.24v29.184l-3.072-3.072c-3.584-4.096-10.24-4.096-13.824 0-2.048 2.048-3.072 4.608-3.072 7.168 0 2.56 1.024 5.12 2.56 7.168l17.92 22.528 1.536 1.536c1.536 2.048 3.584 3.584 5.632 5.12 3.072 1.536 6.144 2.56 9.728 2.56h16.384c6.656 0 12.8-3.072 17.92-7.68 2.048-2.56 4.096-5.12 5.12-8.192 1.536-3.072 2.048-6.656 2.048-10.24v-35.84c1.536-5.632-3.072-10.24-8.704-10.24z" fill="#ffcb66" p-id="8544"></path><path d="M926.72 421.888v37.376c0 5.12-2.048 10.24-5.632 14.336-3.584 4.096-8.192 6.144-13.312 6.144H890.88c-6.144 0-8.192-2.56-11.264-5.632l-1.536-1.536-18.944-23.04c-0.512-0.512-1.024-1.536-1.024-2.56s0.512-1.536 1.024-2.56c0.512-0.512 1.536-1.024 2.56-1.024s2.048 0.512 2.56 1.024l9.216 9.216h1.024V414.72c0-2.048 1.536-3.584 3.584-3.584s3.584 1.536 3.584 3.584v28.16c0 2.048 1.536 3.584 3.584 3.584 2.048 0 3.584-1.536 3.584-3.584V404.48c0-2.048 1.536-3.584 3.584-3.584s3.584 1.536 3.584 3.584v34.816c0 2.048 1.536 3.584 3.584 3.584 2.048 0 3.584-1.536 3.584-3.584v-28.16c0-2.048 1.536-3.584 3.584-3.584 2.048 0 3.584 1.536 3.584 3.584v29.696c0 2.048 1.536 3.584 3.584 3.584 2.048 0 3.584-1.536 3.584-3.584v-19.456c0-2.048 1.536-3.584 3.584-3.584s5.632 2.048 5.632 4.096z" fill="#ffcb66" p-id="8545"></path><path d="M926.72 421.888v37.376c0 5.12-2.048 10.24-5.632 14.336-3.584 4.096-8.192 6.144-13.312 6.144H890.88c-6.144 0-8.192-2.56-11.264-5.632l-1.536-1.536-18.944-23.04c-0.512-0.512-1.024-1.536-1.024-2.56s0.512-1.536 1.024-2.56c0.512-0.512 1.536-1.024 2.56-1.024s2.048 0.512 2.56 1.024l9.216 9.216h1.024V414.72c0-2.048 1.536-3.584 3.584-3.584s3.584 1.536 3.584 3.584v28.16c0 2.048 1.536 3.584 3.584 3.584 2.048 0 3.584-1.536 3.584-3.584V404.48c0-2.048 1.536-3.584 3.584-3.584s3.584 1.536 3.584 3.584v34.816c0 2.048 1.536 3.584 3.584 3.584 2.048 0 3.584-1.536 3.584-3.584v-28.16c0-2.048 1.536-3.584 3.584-3.584 2.048 0 3.584 1.536 3.584 3.584v29.696c0 2.048 1.536 3.584 3.584 3.584 2.048 0 3.584-1.536 3.584-3.584v-19.456c0-2.048 1.536-3.584 3.584-3.584s5.632 2.048 5.632 4.096z" fill="#ffcb66" p-id="8546"></path></svg>