<?xml version="1.0" standalone="no"?><!DOCTYPE svg PUBLIC "-//W3C//DTD SVG 1.1//EN" "http://www.w3.org/Graphics/SVG/1.1/DTD/svg11.dtd"><svg t="1650010183767" class="icon" viewBox="0 0 1024 1024" version="1.1" xmlns="http://www.w3.org/2000/svg" p-id="1602" xmlns:xlink="http://www.w3.org/1999/xlink" width="64" height="64"><defs><style type="text/css">@font-face { font-family: feedback-iconfont; src: url("//at.alicdn.com/t/font_1031158_u69w8yhxdu.woff2?t=1630033759944") format("woff2"), url("//at.alicdn.com/t/font_1031158_u69w8yhxdu.woff?t=1630033759944") format("woff"), url("//at.alicdn.com/t/font_1031158_u69w8yhxdu.ttf?t=1630033759944") format("truetype"); }
</style></defs><path d="M255.33 650.325c-21.487-15.89-19.574-56.298-5.66-94.998 14.028-38.988 49.365-76.557 49.763-84.846 1.403-30.827-3.044-35.96 0-44.056 6.79-18.156 15.047-11.19 15.047-20.594 0-118.637 88.145-214.8 196.883-214.8s196.916 96.163 196.916 214.8c0 4.542 11.794 0 17.469 20.594 1.148 4.256 1.944 20.674 0.575 44.056-0.67 11.237 29.965 24.914 45.777 84.846 15.828 59.948 0 88.208-7.922 94.998-9.802 8.4-21.135-6.168-30.3-20.769-8.527-13.643-15.191-27.288-16.896-22.092-8.639 26.14-12.688 43.627-38.159 72.11-1.34 1.514 29.456 12.656 38.159 36.374 8.352 22.761 24.594 58.824-81.706 70.141-33.472 3.54-61.909-6.28-81.816-16.066-17.232-8.488-28.054-16.984-30.125-16.808-8.336 0.732-4.639 0-13.58 0-7.316 0-7.795 0.541-14.696 0-1.898-0.128-22.634 32.874-115.354 32.874-71.839 0-90.472-45.244-75.998-70.141 14.44-24.865 38.573-32.119 35.161-36.054-16.736-19.399-28.276-40.104-35.161-58.864-1.723-4.67-3.156-9.214-4.273-13.565-1.258-4.83-6.551 8.672-14.121 22.124-6.472 11.573-14.633 23.144-23.336 23.144-2.168 0-4.416-0.733-6.647-2.408M63.865 513.215c0 247.156 200.358 447.506 447.499 447.506 247.156 0 447.499-200.35 447.499-447.506 0-247.141-200.342-447.5-447.499-447.5-247.14 0-447.499 200.359-447.499 447.5" p-id="1603"></path></svg>